<svg width="123" height="51" viewBox="0 0 123 51" fill="none" xmlns="http://www.w3.org/2000/svg">
<path d="M4.47775 13.736L4.57375 16.616C4.91508 17.832 5.41642 18.6853 6.07775 19.176C6.18442 19.2827 6.42975 19.4 6.81375 19.528L7.61375 19.72C7.72042 19.72 7.83775 19.6773 7.96575 19.592C8.11508 19.5493 8.22175 19.496 8.28575 19.432C8.43508 19.24 8.58442 19.0693 8.73375 18.92C8.88308 18.7707 8.94708 18.696 8.92575 18.696C9.01108 18.6107 9.04308 18.472 9.02175 18.28C9.08575 18.216 9.17108 18.0773 9.27775 17.864C9.51242 16.6693 9.74708 15.9013 9.98175 15.56C10.0671 14.6213 10.1098 14.024 10.1098 13.768C10.1098 12.872 9.87508 11.7733 9.40575 10.472C9.14975 10.1733 9.02175 9.224 9.02175 7.624C8.89375 7.304 8.81908 7.016 8.79775 6.76C8.77642 6.48267 8.70175 6.19467 8.57375 5.896C8.46708 5.576 8.38175 5.36267 8.31775 5.256C8.25375 5.14933 8.21108 5.05333 8.18975 4.968C8.18975 4.86133 8.14708 4.73333 8.06175 4.584C7.72042 4.072 7.19775 4.34933 6.49375 5.416L5.94975 6.376C5.94975 6.41867 5.84308 6.81333 5.62975 7.56C5.28842 8.75467 5.11775 9.42667 5.11775 9.576C5.13908 9.704 5.02175 10.1413 4.76575 10.888C4.74442 10.952 4.73375 11.1013 4.73375 11.336C4.75508 11.5707 4.71242 11.9013 4.60575 12.328C4.52042 12.7333 4.47775 13.2027 4.47775 13.736ZM0.829751 11.4L1.05375 9.032C1.05375 8.904 1.09642 8.712 1.18175 8.456C1.28842 8.2 1.35242 8.04 1.37375 7.976C1.37375 7.93333 1.39508 7.85867 1.43775 7.752C1.43775 7.176 1.59775 6.67467 1.91775 6.248C2.40842 5.11733 2.78175 4.27467 3.03775 3.72C3.29375 3.16533 3.57108 2.70667 3.86975 2.344C3.89108 2.23733 4.11508 2.06667 4.54175 1.832C5.41642 1.36267 6.23775 1.128 7.00575 1.128C7.77375 1.128 8.50975 1.24533 9.21375 1.48C9.44842 1.52267 9.75775 1.68267 10.1418 1.96C10.5471 2.23733 10.7818 2.38667 10.8458 2.408C11.2084 2.62133 11.5818 3.08 11.9658 3.784C12.3711 4.46667 12.5844 4.968 12.6058 5.288C12.6484 5.608 12.7764 6.12 12.9898 6.824C13.2244 7.50667 13.3418 8.01867 13.3418 8.36C13.3418 8.68 13.3951 9.17067 13.5018 9.832C13.6298 10.4933 13.6831 11.0267 13.6618 11.432C13.5338 14.44 13.1498 16.616 12.5098 17.96C12.3818 18.8987 12.1364 19.496 11.7738 19.752L11.7098 20.2C11.6884 20.456 11.5604 20.744 11.3258 21.064C11.1124 21.384 10.8351 21.6293 10.4938 21.8C10.4298 21.864 10.0031 21.96 9.21375 22.088C8.08308 22.3013 7.33642 22.408 6.97375 22.408C6.50442 22.5573 5.90708 22.5253 5.18175 22.312C4.47775 22.12 4.07242 22.0133 3.96575 21.992C3.85908 21.992 3.62442 21.8747 3.26175 21.64C2.92042 21.4267 2.69642 21.256 2.58975 21.128C2.24842 20.872 2.04575 20.6693 1.98175 20.52L1.53375 19.624C1.25642 19.3467 1.06442 18.952 0.957751 18.44C0.851084 17.9067 0.744418 17.5653 0.637751 17.416C0.531084 17.1813 0.435084 16.936 0.349751 16.68C0.371084 16.5307 0.381751 16.264 0.381751 15.88V15.56C0.296417 15.24 0.317751 14.9307 0.445751 14.632C0.467084 14.4827 0.477751 14.3013 0.477751 14.088C0.499084 13.8533 0.531084 13.5227 0.573751 13.096V12.68C0.765751 12.04 0.851084 11.6133 0.829751 11.4ZM20.6788 19.816L20.4868 19.272L20.1348 17.128C20.0281 16.7227 19.9748 16.36 19.9748 16.04L20.1028 14.632C20.1028 14.3973 20.1134 14.2693 20.1348 14.248C19.8788 14.248 19.4948 14.5573 18.9828 15.176C18.9401 15.24 18.8761 15.3467 18.7908 15.496C17.8948 16.9253 17.3614 18.6427 17.1908 20.648C17.0201 21.0107 16.7961 21.192 16.5188 21.192C15.9428 21.064 15.6228 21 15.5588 21L15.3348 21.032H14.9188C14.4281 20.9893 14.1081 20.7973 13.9588 20.456C13.8734 20.3493 13.8308 20.072 13.8308 19.624V19.176L13.7348 17.416V14.792C13.7348 14.4933 13.7134 14.12 13.6708 13.672C13.6281 13.1813 13.6174 12.4133 13.6388 11.368C13.6601 10.3013 13.6494 9.736 13.6068 9.672C13.5641 9.58667 13.5428 9.48 13.5428 9.352C13.5428 9.224 13.5748 9.096 13.6388 8.968C13.7028 8.84 13.9908 8.70133 14.5028 8.552C14.7801 8.38133 15.0148 8.296 15.2068 8.296C15.5054 8.36 15.8894 8.488 16.3588 8.68C16.6788 8.744 16.8388 9.05333 16.8388 9.608C16.8814 10.5253 16.8814 11.1867 16.8388 11.592C16.8174 11.9973 16.8281 12.8187 16.8708 14.056C18.4494 11.0267 19.8574 9.20267 21.0948 8.584C21.2014 8.47733 21.3614 8.424 21.5748 8.424C21.7881 8.424 22.0334 8.53067 22.3108 8.744C22.5881 8.95733 22.7801 9.096 22.8868 9.16C22.9934 9.224 23.1108 9.33067 23.2388 9.48C23.3881 9.62933 23.5054 9.72533 23.5908 9.768C23.8468 10.1947 23.9001 11.1973 23.7508 12.776C23.7294 13.0107 23.7081 13.224 23.6868 13.416C23.6654 13.5867 23.6548 13.9707 23.6548 14.568C23.6548 15.1653 23.6654 15.5813 23.6868 15.816C23.7508 16.5627 23.7828 17 23.7828 17.128L23.9428 18.344C24.1561 18.8347 24.2628 19.2187 24.2628 19.496C24.2841 19.752 24.4761 20.168 24.8388 20.744C24.9881 21.064 24.9241 21.32 24.6468 21.512C24.2201 21.7253 23.9854 21.8107 23.9428 21.768C23.9214 21.7467 23.8041 21.768 23.5908 21.832C23.3774 21.9173 22.9934 21.9387 22.4388 21.896C22.1614 21.832 21.8841 21.6613 21.6068 21.384L21.1268 20.904C20.9561 20.648 20.8388 20.3707 20.7748 20.072C20.6681 19.9653 20.6361 19.88 20.6788 19.816ZM29.3588 7.784H29.4228C29.7001 7.69867 30.1481 7.73067 30.7668 7.88C30.9801 7.944 31.1081 8.552 31.1508 9.704C31.2361 10.5787 31.2788 11.1867 31.2788 11.528C31.2788 11.848 31.2894 12.04 31.3108 12.104V14.248L31.4708 14.28C31.4708 14.2587 31.4921 14.1307 31.5348 13.896C31.6414 13.2987 31.7588 12.84 31.8868 12.52C31.9721 12.4347 32.0148 12.328 32.0148 12.2C32.0361 12.072 32.1001 11.9333 32.2068 11.784C32.3348 11.1867 32.6548 10.408 33.1668 9.448C33.3374 9.04267 33.4974 8.744 33.6468 8.552C33.8174 8.33867 34.0628 8.264 34.3828 8.328C34.7241 8.392 35.0014 8.50933 35.2148 8.68C35.3854 8.70133 35.5881 8.73333 35.8228 8.776L36.7508 8.968C36.8361 8.98933 36.9534 9.064 37.1028 9.192C37.2521 9.29867 37.3161 9.43733 37.2948 9.608C37.2734 9.77867 37.2521 10.28 37.2308 11.112V11.624L37.1028 12.872C37.1028 13.2133 37.1241 13.416 37.1668 13.48L37.2948 13.576L37.5508 12.104C37.5508 11.9547 37.6148 11.816 37.7428 11.688L38.1268 10.76C38.1268 10.696 38.1908 10.5573 38.3188 10.344C38.3614 10.1947 38.4574 9.98133 38.6068 9.704C38.7774 9.42667 38.9908 9.16 39.2468 8.904C39.2468 8.73333 39.4388 8.616 39.8228 8.552C40.1214 8.232 40.6121 8.22133 41.2948 8.52C41.4228 8.52 41.5401 8.54133 41.6468 8.584C41.6468 8.62667 41.7214 8.65867 41.8708 8.68C42.0414 8.70133 42.2441 8.84 42.4788 9.096V9.448C42.4788 9.66133 42.4894 9.82133 42.5108 9.928C42.4894 10.0773 42.5001 10.2693 42.5428 10.504V10.888C42.5641 11.0587 42.6174 11.592 42.7028 12.488V12.84C42.7668 12.968 42.7881 13.1067 42.7668 13.256C42.7668 13.384 42.7668 13.5227 42.7668 13.672C42.8308 13.736 42.8841 13.9173 42.9268 14.216C42.9694 14.4933 42.9481 14.7707 42.8628 15.048L42.9268 15.336V16.232C43.0334 16.3173 43.0868 16.4453 43.0868 16.616L43.1828 17.16C43.1828 17.544 43.2361 17.928 43.3428 18.312V18.664L43.5028 19.496V19.688L43.4708 20.008C43.4708 20.2427 43.3428 20.4133 43.0868 20.52C43.0441 20.5413 42.9801 20.5733 42.8948 20.616C42.8308 20.6587 42.7134 20.68 42.5428 20.68L41.8708 20.456L41.5508 20.232C41.3801 20.2747 41.1561 20.2 40.8788 20.008C40.8788 19.816 40.8041 19.6453 40.6548 19.496C40.3988 19.4107 40.3028 19.24 40.3668 18.984C40.3881 18.9627 40.3348 18.8453 40.2068 18.632C40.2494 18.5893 40.2174 18.3547 40.1108 17.928C40.1108 17.736 40.0894 17.5547 40.0468 17.384C40.0254 17.192 40.0041 17 39.9828 16.808C39.9828 16.616 39.9508 16.4453 39.8868 16.296C39.9081 16.296 39.9188 16.2213 39.9188 16.072C39.9188 15.9227 39.8974 15.784 39.8548 15.656V14.92L39.6948 13.64L39.2148 15.112C38.8948 15.944 38.7348 16.392 38.7348 16.456L37.7108 19.656C37.6468 19.784 37.5188 19.9333 37.3268 20.104C37.1561 20.2533 37.0068 20.328 36.8788 20.328C36.8361 20.264 36.7188 20.232 36.5268 20.232C36.3561 20.232 36.1428 20.2853 35.8868 20.392C35.1614 20.4773 34.7454 20.2533 34.6388 19.72L34.5748 18.984L34.6068 18.248C34.5641 18.184 34.5428 18.0347 34.5428 17.8L34.5108 17.352V15.976L34.4468 14.344V12.776C33.8281 14.4613 33.4441 15.56 33.2948 16.072L32.1108 19.88C31.8761 20.4987 31.4494 20.8293 30.8308 20.872L30.4788 20.936C30.0094 21.0427 29.7001 20.968 29.5508 20.712L29.2308 20.168C29.1454 19.6987 29.0601 19.432 28.9748 19.368C28.9321 19.0693 28.8254 18.76 28.6548 18.44L28.4948 17.672C28.4948 17.608 28.4734 17.512 28.4308 17.384V16.808C28.3668 16.6373 28.3134 16.296 28.2708 15.784C28.2281 15.2507 28.2174 14.824 28.2388 14.504C28.1534 14.248 28.1321 13.928 28.1748 13.544V12.968C28.0681 12.4773 28.0148 11.7307 28.0148 10.728V10.28C28.1214 9.64 28.1748 9.21333 28.1748 9C28.1748 8.76533 28.2281 8.59467 28.3348 8.488C28.4414 8.36 28.7828 8.12533 29.3588 7.784ZM49.5473 11.816C49.5259 11.3467 49.4193 10.9947 49.2273 10.76C49.0353 10.504 48.6833 10.3547 48.1713 10.312C48.0219 10.4187 47.8193 10.7813 47.5633 11.4C47.3286 11.9973 47.1793 12.6373 47.1153 13.32C46.9019 14.344 46.7953 15.368 46.7953 16.392C46.8166 17.4373 46.9873 18.2053 47.3073 18.696C47.3499 18.7813 47.3926 18.8133 47.4353 18.792C47.5419 18.792 47.7126 18.5787 47.9473 18.152C49.0779 16.104 49.6113 13.992 49.5473 11.816ZM50.5393 17.928L50.0593 19.176C50.0593 19.2187 49.7499 19.6773 49.1313 20.552C48.9393 20.9573 48.5766 21.1813 48.0433 21.224C47.5313 21.2667 47.0299 21.2133 46.5393 21.064C45.8779 20.8293 45.3766 20.552 45.0353 20.232C44.6939 19.912 44.3526 19.3787 44.0113 18.632C43.6913 17.864 43.5206 17.2347 43.4993 16.744C43.3926 16.04 43.3393 15.592 43.3393 15.4V14.632C43.3393 13.864 43.3713 13.416 43.4353 13.288C43.4566 13.2027 43.5099 12.9787 43.5953 12.616C43.7019 11.72 43.9579 10.8667 44.3633 10.056C45.1526 8.49867 45.9633 7.69867 46.7953 7.656H46.9553C46.9979 7.67733 47.0619 7.688 47.1473 7.688H47.5633C48.3099 7.752 48.7686 7.816 48.9393 7.88C49.2593 7.96533 49.5366 8.008 49.7713 8.008L50.6033 8.168C50.8593 8.14667 51.1899 8.2 51.5953 8.328C52.0219 8.456 52.2459 8.552 52.2673 8.616C52.3099 8.68 52.3739 8.91467 52.4593 9.32C52.5446 9.72533 52.5979 10.024 52.6193 10.216C52.6619 10.3867 52.6939 10.568 52.7153 10.76C52.8859 12.3173 53.1633 13.768 53.5473 15.112C53.5686 15.176 53.5899 15.272 53.6113 15.4C53.6326 15.528 53.7073 15.784 53.8353 16.168C53.9633 16.5307 54.0593 16.84 54.1233 17.096C54.1873 17.352 54.3046 17.6933 54.4753 18.12C54.6033 18.44 54.7953 18.8133 55.0513 19.24C55.5206 19.9013 55.2753 20.4133 54.3153 20.776C54.1873 20.8187 53.9633 20.84 53.6433 20.84C53.5793 20.84 53.3766 20.7333 53.0353 20.52C52.8219 20.52 52.6193 20.4027 52.4273 20.168L52.1713 20.104C52.0219 19.9547 51.8939 19.88 51.7873 19.88C51.7446 19.8373 51.3606 18.9733 50.6353 17.288C50.5713 17.5227 50.5393 17.736 50.5393 17.928ZM61.4725 19.816L61.2805 19.272L60.9285 17.128C60.8218 16.7227 60.7685 16.36 60.7685 16.04L60.8965 14.632C60.8965 14.3973 60.9072 14.2693 60.9285 14.248C60.6725 14.248 60.2885 14.5573 59.7765 15.176C59.7338 15.24 59.6698 15.3467 59.5845 15.496C58.6885 16.9253 58.1552 18.6427 57.9845 20.648C57.8138 21.0107 57.5898 21.192 57.3125 21.192C56.7365 21.064 56.4165 21 56.3525 21L56.1285 21.032H55.7125C55.2218 20.9893 54.9018 20.7973 54.7525 20.456C54.6672 20.3493 54.6245 20.072 54.6245 19.624V19.176L54.5285 17.416V14.792C54.5285 14.4933 54.5072 14.12 54.4645 13.672C54.4218 13.1813 54.4112 12.4133 54.4325 11.368C54.4538 10.3013 54.4432 9.736 54.4005 9.672C54.3578 9.58667 54.3365 9.48 54.3365 9.352C54.3365 9.224 54.3685 9.096 54.4325 8.968C54.4965 8.84 54.7845 8.70133 55.2965 8.552C55.5738 8.38133 55.8085 8.296 56.0005 8.296C56.2992 8.36 56.6832 8.488 57.1525 8.68C57.4725 8.744 57.6325 9.05333 57.6325 9.608C57.6752 10.5253 57.6752 11.1867 57.6325 11.592C57.6112 11.9973 57.6218 12.8187 57.6645 14.056C59.2432 11.0267 60.6512 9.20267 61.8885 8.584C61.9952 8.47733 62.1552 8.424 62.3685 8.424C62.5818 8.424 62.8272 8.53067 63.1045 8.744C63.3818 8.95733 63.5738 9.096 63.6805 9.16C63.7872 9.224 63.9045 9.33067 64.0325 9.48C64.1818 9.62933 64.2992 9.72533 64.3845 9.768C64.6405 10.1947 64.6938 11.1973 64.5445 12.776C64.5232 13.0107 64.5018 13.224 64.4805 13.416C64.4592 13.5867 64.4485 13.9707 64.4485 14.568C64.4485 15.1653 64.4592 15.5813 64.4805 15.816C64.5445 16.5627 64.5765 17 64.5765 17.128L64.7365 18.344C64.9498 18.8347 65.0565 19.2187 65.0565 19.496C65.0778 19.752 65.2698 20.168 65.6325 20.744C65.7818 21.064 65.7178 21.32 65.4405 21.512C65.0138 21.7253 64.7792 21.8107 64.7365 21.768C64.7152 21.7467 64.5978 21.768 64.3845 21.832C64.1712 21.9173 63.7872 21.9387 63.2325 21.896C62.9552 21.832 62.6778 21.6613 62.4005 21.384L61.9205 20.904C61.7498 20.648 61.6325 20.3707 61.5685 20.072C61.4618 19.9653 61.4298 19.88 61.4725 19.816ZM68.6833 14.76L68.7473 16.008L68.9713 16.616L69.2913 17.256C69.3553 17.704 69.5686 17.9707 69.9313 18.056C70.1873 18.0987 70.4326 17.96 70.6673 17.64C70.7953 17.5333 70.8913 17.4587 70.9553 17.416C71.0833 17.3093 71.1473 17.0747 71.1473 16.712C71.1473 16.328 71.1793 16.0187 71.2433 15.784C71.2219 15.6773 71.2326 15.304 71.2753 14.664C71.3393 14.0027 71.3926 13.5013 71.4353 13.16C71.4993 12.7973 71.5206 12.552 71.4993 12.424C71.3499 12.232 71.2113 11.8373 71.0833 11.24C70.6566 10.8133 70.3686 10.5787 70.2193 10.536C69.7499 10.3653 69.4619 10.344 69.3553 10.472C69.2059 10.6213 69.0459 11.3253 68.8753 12.584C68.7473 12.7973 68.6833 13.0747 68.6833 13.416C68.7046 13.736 68.7046 13.9813 68.6833 14.152V14.76ZM74.6353 13.896C74.7206 14.9627 74.7633 15.7947 74.7633 16.392L74.7953 16.808L74.7313 18.76C74.7313 19.0587 74.7206 19.336 74.6993 19.592V20.104L74.5713 20.936V21.256C74.5713 22.0453 74.2086 23.1653 73.4833 24.616C73.2273 25.1493 72.8326 25.6933 72.2993 26.248C71.4033 27.208 70.3046 27.7093 69.0033 27.752C67.9153 27.752 67.1153 27.528 66.6033 27.08L66.2833 26.92C66.0273 26.792 65.7393 26.3867 65.4193 25.704C65.4193 25.64 65.3659 25.5013 65.2593 25.288C65.2593 24.9893 65.3233 24.7547 65.4513 24.584C65.5366 24.4133 65.8246 24.264 66.3153 24.136C66.5286 24.0933 66.9233 24.3067 67.4993 24.776C67.9259 25.2453 68.4273 25.4907 69.0033 25.512C69.6006 25.5973 70.0593 25.32 70.3793 24.68C70.6993 24.04 70.9446 23.1867 71.1153 22.12C71.2006 21.7147 71.2433 21.256 71.2433 20.744C71.2433 20.232 71.2219 19.8907 71.1793 19.72C70.6033 20.0187 70.0913 20.1467 69.6433 20.104H69.3553C69.1846 20.1467 68.9286 20.1467 68.5873 20.104C68.2459 20.04 67.9259 19.9013 67.6273 19.688L67.0193 19.272C67.0406 19.2933 67.0299 19.304 66.9873 19.304L66.8273 19.208L66.3793 18.856C66.1873 18.7493 66.0913 18.5467 66.0913 18.248C65.9419 18.1627 65.8353 18.056 65.7713 17.928C65.6006 17.864 65.5153 17.7147 65.5153 17.48L65.3553 16.84C65.3553 16.7333 65.3019 16.4667 65.1953 16.04C65.0886 15.8693 65.0566 15.6987 65.0993 15.528C65.1633 15.3573 65.1953 15.2187 65.1953 15.112L65.2913 14.024V13.8C65.2273 13.736 65.2273 13.5333 65.2913 13.192C65.3553 13.064 65.3873 12.968 65.3873 12.904C65.5153 12.2213 65.6113 11.7947 65.6753 11.624C65.7393 11.432 65.7819 11.2187 65.8033 10.984C65.8459 10.7493 65.9313 10.536 66.0593 10.344L66.3793 9.608C66.5073 9.37333 66.8486 9.04267 67.4033 8.616C67.6166 8.40267 67.8833 8.264 68.2033 8.2L69.0993 8.264L70.0273 8.488C70.0486 8.488 70.4433 8.648 71.2113 8.968C71.2113 8.56267 71.4139 8.22133 71.8193 7.944C71.9899 7.77333 72.3633 7.76267 72.9392 7.912H73.2273C73.4619 7.89067 73.7179 7.98667 73.9953 8.2C74.1233 8.34933 74.2619 8.69067 74.4113 9.224C74.5606 11.208 74.6353 12.7653 74.6353 13.896ZM81.079 10.76C81.1643 10.44 81.1537 10.0347 81.047 9.544C80.8977 9.416 80.695 9.352 80.439 9.352C80.119 9.352 79.831 9.65067 79.575 10.248C79.2337 10.76 78.9777 11.3253 78.807 11.944H78.775C78.5403 12.84 78.423 13.32 78.423 13.384C78.7643 13.4693 79.0417 13.512 79.255 13.512C79.4683 13.4907 79.7137 13.3733 79.991 13.16C80.4817 12.6907 80.8443 11.8907 81.079 10.76ZM80.983 15.368L79.799 15.464C79.1377 15.464 78.615 15.4 78.231 15.272L78.327 15.88C78.391 17.6507 78.8817 18.8133 79.799 19.368C80.055 19.4747 80.2683 19.528 80.439 19.528C80.6097 19.528 80.8337 19.4427 81.111 19.272C81.1963 19.1867 81.271 19.0693 81.335 18.92C81.3563 18.728 81.463 18.6427 81.655 18.664C82.5297 17.5547 83.191 17.1173 83.639 17.352C84.087 17.6507 84.311 17.8853 84.311 18.056C84.311 18.1413 84.2577 18.2373 84.151 18.344V18.536C84.151 18.7493 84.0123 19.1333 83.735 19.688C83.479 20.2427 83.2017 20.712 82.903 21.096C82.7537 21.416 82.5617 21.64 82.327 21.768C81.6443 22.1947 80.919 22.3653 80.151 22.28C79.9803 22.2587 79.863 22.216 79.799 22.152C79.6283 22.1093 79.5003 22.0987 79.415 22.12L79.159 22.088C78.967 22.088 78.807 22.0453 78.679 21.96C78.4657 21.832 78.3163 21.768 78.231 21.768C77.6763 21.5547 77.335 21.3947 77.207 21.288C77.1003 21.1813 77.0043 21.1067 76.919 21.064C76.8337 21.0213 76.631 20.7973 76.311 20.392C76.0337 20.1573 75.8737 20.008 75.831 19.944C75.703 19.752 75.5857 19.6133 75.479 19.528C75.3937 19.4427 75.3403 19.2507 75.319 18.952C75.2337 18.8453 75.191 18.7067 75.191 18.536L75.063 18.28C75.063 18.1307 74.999 18.0133 74.871 17.928C74.743 17.8 74.679 17.64 74.679 17.448V17.192C74.5937 17.1493 74.5723 17.0213 74.615 16.808V15.976L74.583 15.688V15.464C74.5617 15.3787 74.583 15.1973 74.647 14.92L74.615 14.632C74.6363 14.6107 74.6683 14.44 74.711 14.12C74.7963 13.672 74.8923 13.3947 74.999 13.288V13C75.0203 12.936 75.031 12.8507 75.031 12.744C75.031 12.6373 75.0523 12.52 75.095 12.392C75.159 12.264 75.3297 11.784 75.607 10.952L76.119 9.832C76.2683 9.512 76.503 9.16 76.823 8.776C76.8443 8.66933 76.9297 8.47733 77.079 8.2L77.495 7.816C77.623 7.624 77.815 7.48533 78.071 7.4C78.3697 7.25067 78.5937 7.176 78.743 7.176L79.639 7.048C79.7457 7.06933 79.8203 7.08 79.863 7.08H80.279C80.7483 7.12267 81.1323 7.21867 81.431 7.368C82.071 7.56 82.5403 7.80533 82.839 8.104C83.5003 8.85067 83.831 9.56533 83.831 10.248C83.831 10.9307 83.7243 11.5173 83.511 12.008C82.9777 13.224 82.5937 13.992 82.359 14.312C81.975 15.016 81.5163 15.368 80.983 15.368ZM93.5525 10.568L93.3605 10.536C93.1258 10.4293 92.9338 10.4293 92.7845 10.536L91.9205 11.048C91.0245 12.0507 90.4805 12.8827 90.2885 13.544C90.2458 13.736 90.1605 14.3227 90.0325 15.304C89.9898 16.2 90.0645 16.872 90.2565 17.32C90.2565 17.4267 90.3525 17.5227 90.5445 17.608C90.8218 17.544 91.1418 17.256 91.5045 16.744L91.8565 16.104C92.2832 15.5067 92.5072 15.176 92.5285 15.112C92.5712 15.0267 92.6565 14.92 92.7845 14.792L92.9125 14.344C92.9125 14.3227 92.9552 14.2693 93.0405 14.184C93.1898 13.8213 93.3925 13.3307 93.6485 12.712C93.6485 12.52 93.7338 12.2533 93.9045 11.912C94.0538 11.7413 94.1072 11.3893 94.0645 10.856L93.9045 10.728C93.7552 10.728 93.6378 10.6747 93.5525 10.568ZM90.4805 8.2C90.6938 8.22133 90.8965 8.2 91.0885 8.136C91.2805 8.072 91.5578 8.04 91.9205 8.04C92.5605 8.08267 93.0298 8.15733 93.3285 8.264C93.6485 8.37067 93.8085 8.43467 93.8085 8.456L94.6085 8.936C94.7792 9.08533 94.9285 9.10667 95.0565 9C95.3978 8.744 95.7285 8.65867 96.0485 8.744C96.3258 8.744 96.5605 8.89333 96.7525 9.192C97.0085 9.40533 97.1898 9.56533 97.2965 9.672C97.4032 9.75733 97.4458 9.90667 97.4245 10.12C97.4032 10.312 97.3925 11.3253 97.3925 13.16C97.4352 14.376 97.4245 15.0907 97.3605 15.304C97.3178 15.496 97.3285 16.0613 97.3925 17C97.4565 17.384 97.4885 17.6613 97.4885 17.832C97.4885 18.0027 97.4778 18.1627 97.4565 18.312L97.4885 19.592C97.4032 20.552 97.4138 21.5013 97.5205 22.44L97.5525 23.464L98.0325 23.24C98.6512 23.0053 99.1632 23.4853 99.5685 24.68C99.3978 25.0213 99.2805 25.2453 99.2165 25.352C99.1952 25.3733 99.0138 25.7253 98.6725 26.408C98.6725 26.4933 98.6085 26.6213 98.4805 26.792C98.0965 27.2827 97.6272 27.5387 97.0725 27.56C96.5392 27.5813 96.0805 27.5173 95.6965 27.368C95.5898 27.368 95.5152 27.3147 95.4725 27.208L94.9925 26.376V26.312L94.9605 26.024C94.8112 25.9813 94.7258 25.864 94.7045 25.672C94.6832 25.608 94.6725 25.544 94.6725 25.48V25.32C94.4805 24.7867 94.4165 24.4133 94.4805 24.2C94.5872 23.7947 94.5552 23.432 94.3845 23.112C94.2352 22.792 94.1605 22.504 94.1605 22.248C94.1605 22.0133 94.1925 21.7893 94.2565 21.576C94.3418 21.384 94.3632 21.192 94.3205 21V20.648L94.2245 19.72C93.9898 19.336 93.9792 18.8667 94.1925 18.312V17.736L94.2245 17.288V17.096L93.9685 17.576L92.6245 19.496C92.4325 19.688 92.3045 19.8053 92.2405 19.848C92.1765 19.8693 91.9525 19.8587 91.5685 19.816C91.1845 19.7733 90.9285 19.7093 90.8005 19.624C90.7152 19.624 90.4912 19.5707 90.1285 19.464C89.8512 19.464 89.6058 19.4107 89.3925 19.304C89.1792 19.176 89.0405 19.1013 88.9765 19.08C88.8698 19.0373 88.6458 18.92 88.3045 18.728C88.0272 18.728 87.7712 18.472 87.5365 17.96L87.3765 17.672C87.2272 17.544 87.1525 17.3627 87.1525 17.128C87.0672 17.0427 87.0138 16.8187 86.9925 16.456C86.9285 16.392 86.9178 16.264 86.9605 16.072C86.9178 15.7307 86.8965 15.1227 86.8965 14.248C86.8965 13.352 87.0352 12.3813 87.3125 11.336C87.3125 10.9733 87.5578 10.5147 88.0485 9.96L88.1765 9.8C88.2405 9.58667 88.4752 9.34133 88.8805 9.064C89.0298 8.89333 89.3498 8.712 89.8405 8.52L90.4805 8.2ZM108.256 12.136L108.288 12.744C108.288 12.808 108.352 13.48 108.48 14.76V15.144C108.48 15.656 108.565 16.424 108.736 17.448C108.736 17.896 108.96 18.6747 109.408 19.784C109.514 19.848 109.589 19.9973 109.632 20.232L109.6 20.552C109.642 20.6587 109.589 20.776 109.44 20.904C109.44 21.0533 109.237 21.128 108.832 21.128C108.426 21.128 108.17 21.1493 108.064 21.192C107.957 21.2347 107.786 21.2133 107.552 21.128C107.466 21.1707 107.21 21.0853 106.784 20.872C106.592 20.8293 106.442 20.6373 106.336 20.296L106.08 19.688C106.08 19.304 105.973 18.9627 105.76 18.664C105.76 18.5573 105.706 18.3653 105.6 18.088C105.514 17.8107 105.45 17.6613 105.408 17.64C105.194 18.4933 104.928 19.1547 104.608 19.624C104.608 19.7307 104.544 19.8587 104.416 20.008L104.096 20.616C104.096 20.6587 104 20.776 103.808 20.968C103.68 21.2453 103.392 21.384 102.944 21.384C102.538 21.384 102.048 21.2773 101.472 21.064C101.322 21.0427 101.024 20.9467 100.576 20.776C100.448 20.7973 100.245 20.7653 99.9677 20.68C99.7117 20.5733 99.5624 20.52 99.5197 20.52C99.4557 20.456 99.3064 20.3493 99.0717 20.2L98.5277 19.624C98.5064 19.6027 98.4637 19.5067 98.3997 19.336C98.3571 19.144 98.3464 19.016 98.3677 18.952C98.3891 18.8667 98.3891 18.7493 98.3677 18.6C98.3464 18.4507 98.3571 18.3013 98.3997 18.152C98.3997 17.7253 98.4424 17.256 98.5277 16.744C98.5064 16.68 98.4957 16.6053 98.4957 16.52C98.4957 16.4347 98.5384 16.2747 98.6237 16.04C98.6024 15.9333 98.5917 15.8587 98.5917 15.816L98.7517 14.568C98.7517 14.2693 98.7624 14.056 98.7837 13.928V13.448C98.8051 13.3627 98.8157 13.2453 98.8157 13.096L98.9757 11.56C98.9757 11.3253 98.9864 11.176 99.0077 11.112V10.792C99.0504 10.7493 99.0717 10.5787 99.0717 10.28L99.3597 9.384L99.5837 9C99.6051 8.91467 99.7224 8.81867 99.9357 8.712C100.277 8.49867 100.768 8.392 101.408 8.392C101.664 8.43467 101.941 8.54133 102.24 8.712C102.304 8.69067 102.453 8.73333 102.688 8.84C103.114 9.032 103.136 9.576 102.752 10.472C102.666 11.048 102.624 11.3467 102.624 11.368C102.538 11.5387 102.496 11.6773 102.496 11.784C102.368 12.4667 102.304 12.8293 102.304 12.872C102.389 12.7867 102.357 12.9147 102.208 13.256L102.08 14.44C101.93 14.952 101.866 15.5173 101.888 16.136L101.76 16.552C101.781 16.6587 101.77 16.9893 101.728 17.544C101.77 17.608 101.792 17.6827 101.792 17.768L101.824 18.024C101.802 18.088 101.813 18.152 101.856 18.216C101.898 18.2587 102.016 18.28 102.208 18.28C102.421 18.2587 102.602 18.2053 102.752 18.12C103.05 17.7573 103.253 17.384 103.36 17C103.466 16.5947 103.52 16.36 103.52 16.296C103.882 15.3787 104.106 14.8453 104.192 14.696C104.298 14.12 104.48 13.4587 104.736 12.712C104.693 12.6053 104.693 12.392 104.736 12.072L105.152 10.376C105.344 10.056 105.44 9.864 105.44 9.8C105.44 9.71467 105.568 9.416 105.824 8.904C105.824 8.81867 105.888 8.648 106.016 8.392C106.165 8.15733 106.432 7.93333 106.816 7.72H106.912C107.381 7.67733 107.786 7.74133 108.128 7.912C108.17 7.99733 108.192 8.14667 108.192 8.36C108.234 8.57333 108.277 8.95733 108.32 9.512V9.832L108.192 10.536C108.362 11.0693 108.384 11.6027 108.256 12.136ZM114.702 11.56C114.553 10.7067 114.137 10.312 113.454 10.376C113.07 10.3973 112.74 10.6533 112.462 11.144C112.078 11.8907 111.908 12.8613 111.95 14.056C112.014 15.2293 112.1 16.0827 112.206 16.616C112.334 17.128 112.548 17.576 112.846 17.96C113.017 18.2587 113.273 18.3973 113.614 18.376C114.212 18.376 114.649 17.8747 114.926 16.872L115.182 16.104C115.289 15.9973 115.31 15.8907 115.246 15.784C115.46 15.2507 115.577 14.6213 115.598 13.896C115.385 13.7467 115.257 13.608 115.214 13.48C115.086 13.1173 115.022 12.872 115.022 12.744C114.873 12.6373 114.788 12.4347 114.766 12.136C114.745 11.8373 114.724 11.6453 114.702 11.56ZM108.846 14.568L108.974 12.936C109.124 11.464 109.572 10.2053 110.318 9.16C111.044 8.28533 112.068 7.83733 113.39 7.816H113.582C114.82 7.816 115.716 8.08267 116.27 8.616C116.868 9.08533 117.305 9.59733 117.582 10.152C117.881 10.7067 118.073 11.112 118.158 11.368C118.244 11.624 118.297 11.9973 118.318 12.488C118.361 13.4053 118.18 13.928 117.774 14.056C118.073 16.0827 117.892 17.6933 117.23 18.888C117.017 19.3787 116.708 19.912 116.302 20.488C116.004 20.872 115.47 21.0853 114.702 21.128C113.934 21.128 113.262 21.0853 112.686 21C112.132 20.9147 111.513 20.648 110.83 20.2C110.148 19.7307 109.668 18.9733 109.39 17.928C109.092 16.9253 108.91 15.8053 108.846 14.568ZM119.656 0.935999C121.086 0.935999 122.088 1.224 122.664 1.8C122.664 2.16267 122.419 2.89867 121.928 4.008C121.843 4.37067 121.704 4.65867 121.512 4.872L121.096 5.288C120.99 5.352 120.883 5.384 120.776 5.384C120.008 5.576 119.411 5.42667 118.984 4.936C118.899 4.808 118.792 4.712 118.664 4.648C118.558 4.584 118.472 4.392 118.408 4.072C118.216 3.79467 118.12 3.58133 118.12 3.432C118.078 2.10933 118.558 1.27733 119.56 0.935999H119.656ZM119.4 8.488C119.614 8.38133 120.115 8.488 120.904 8.808C120.99 8.89333 121.118 8.97867 121.288 9.064L121.8 9.48C121.886 9.56533 121.928 9.704 121.928 9.896V12.712C121.928 13.1387 121.907 13.5227 121.864 13.864V14.056C121.8 14.9307 121.854 16.904 122.024 19.976C122.088 20.5733 121.95 20.936 121.608 21.064C121.246 21.064 121.011 21.0107 120.904 20.904C120.819 20.8613 120.744 20.84 120.68 20.84H120.456L120.264 20.904C120.2 20.904 120.083 20.8613 119.912 20.776C119.742 20.6693 119.624 20.5627 119.56 20.456C119.518 20.3493 119.432 20.2853 119.304 20.264C119.07 20.1787 118.942 20.0187 118.92 19.784C118.622 19.208 118.462 18.8667 118.44 18.76C118.44 18.6533 118.408 18.536 118.344 18.408L118.184 15.624C118.184 15.304 118.206 15.0587 118.248 14.888V14.12C118.27 13.8853 118.291 13.4587 118.312 12.84C118.334 12.2 118.366 11.688 118.408 11.304C118.366 10.7493 118.344 10.376 118.344 10.184C118.344 9.992 118.355 9.85333 118.376 9.768C118.142 9.53333 118.152 9.21333 118.408 8.808C118.686 8.59467 118.952 8.488 119.208 8.488H119.4ZM30.2907 38.312C30.2907 38.0347 30.4294 37.8 30.7067 37.608C30.7067 37.5867 30.7067 37.5653 30.7067 37.544C30.7067 37.3947 30.8667 37.128 31.1867 36.744C31.5281 36.36 31.7201 36.1253 31.7627 36.04C32.2321 35.7627 32.5414 35.6027 32.6907 35.56C32.8614 35.6027 32.9787 35.624 33.0427 35.624H33.1067C33.7254 35.4747 34.4294 35.496 35.2187 35.688C36.0294 35.88 36.5947 36.2213 36.9148 36.712C37.0854 37.032 37.2561 37.4587 37.4267 37.992C37.6827 38.7387 37.8108 39.2827 37.8108 39.624C37.9387 40.1787 37.9494 40.6907 37.8427 41.16L37.8108 41.48C37.8108 41.5653 37.7574 41.6507 37.6508 41.736C37.5441 41.8213 37.4161 41.864 37.2667 41.864C37.1387 41.8427 37.0214 41.896 36.9148 42.024C36.8081 42.1307 36.5841 42.184 36.2427 42.184C35.9227 42.184 35.7521 42.088 35.7307 41.896C35.6667 41.8747 35.5601 41.8 35.4107 41.672C35.2827 41.544 35.2187 41.448 35.2187 41.384L35.0587 41.16C35.0587 41.1173 35.0161 41.0533 34.9307 40.968C34.7387 40.584 34.6641 40.2853 34.7067 40.072C34.8134 39.5173 34.8454 39.2187 34.8027 39.176C34.8027 38.856 34.6961 38.536 34.4827 38.216C34.4614 38.1947 34.4187 38.184 34.3547 38.184C34.3121 38.1627 34.2481 38.1413 34.1627 38.12C34.1201 37.9707 34.0774 37.896 34.0347 37.896C33.8854 37.9387 33.7254 38.056 33.5547 38.248C33.2561 39.08 33.0747 39.6347 33.0107 39.912L32.8187 41.864V43.336C32.8614 44.104 32.9467 44.5733 33.0747 44.744C33.0747 44.8293 33.1174 44.9787 33.2027 45.192C33.2241 45.4693 33.4481 45.96 33.8747 46.664L34.0347 46.856C34.1414 47.1547 34.3227 47.304 34.5787 47.304C34.8347 47.304 35.1974 47.0053 35.6667 46.408C35.6454 46.344 35.7841 46.088 36.0827 45.64C36.3814 45.2347 36.8507 45.0747 37.4907 45.16C37.7681 45.2027 37.9067 45.3627 37.9067 45.64C37.9281 45.832 37.8641 46.312 37.7147 47.08C37.5014 47.2933 37.3947 47.5067 37.3947 47.72C37.2454 48.104 37.1707 48.3173 37.1707 48.36C37.1067 48.36 37.0427 48.392 36.9787 48.456L36.8187 48.776C36.7334 48.776 36.6801 48.8187 36.6587 48.904C36.4241 49.1813 36.2641 49.32 36.1788 49.32C36.1147 49.384 35.9441 49.416 35.6667 49.416C35.2614 49.5867 34.9627 49.672 34.7707 49.672L34.2267 49.704L33.8747 49.576L33.5867 49.544C33.3307 49.4373 33.1281 49.384 32.9787 49.384C32.8507 49.4053 32.7547 49.3947 32.6907 49.352C32.6267 49.3307 32.5414 49.2773 32.4347 49.192C32.1787 48.9787 32.0081 48.872 31.9227 48.872C31.8587 48.872 31.7414 48.808 31.5707 48.68C31.4001 48.6373 31.2614 48.5627 31.1547 48.456L31.0267 48.136C31.0694 47.9867 31.0481 47.9013 30.9627 47.88C30.6854 47.88 30.5254 47.8267 30.4827 47.72L30.2907 47.464C30.2907 47.2933 30.2054 47.0693 30.0347 46.792L29.6507 45.64C29.6081 45.5973 29.6081 45.5227 29.6507 45.416V44.84L29.2667 42.344V41.896C29.4587 41.192 29.5547 40.8293 29.5547 40.808C29.5334 40.3387 29.6401 39.9227 29.8747 39.56C29.8747 39.1547 30.0134 38.7387 30.2907 38.312ZM44.254 38.76C44.3393 38.44 44.3287 38.0347 44.222 37.544C44.0727 37.416 43.87 37.352 43.614 37.352C43.294 37.352 43.006 37.6507 42.75 38.248C42.4087 38.76 42.1527 39.3253 41.982 39.944H41.95C41.7153 40.84 41.598 41.32 41.598 41.384C41.9393 41.4693 42.2167 41.512 42.43 41.512C42.6433 41.4907 42.8887 41.3733 43.166 41.16C43.6567 40.6907 44.0193 39.8907 44.254 38.76ZM44.158 43.368L42.974 43.464C42.3127 43.464 41.79 43.4 41.406 43.272L41.502 43.88C41.566 45.6507 42.0567 46.8133 42.974 47.368C43.23 47.4747 43.4433 47.528 43.614 47.528C43.7847 47.528 44.0087 47.4427 44.286 47.272C44.3713 47.1867 44.446 47.0693 44.51 46.92C44.5313 46.728 44.638 46.6427 44.83 46.664C45.7047 45.5547 46.366 45.1173 46.814 45.352C47.262 45.6507 47.486 45.8853 47.486 46.056C47.486 46.1413 47.4327 46.2373 47.326 46.344V46.536C47.326 46.7493 47.1873 47.1333 46.91 47.688C46.654 48.2427 46.3767 48.712 46.078 49.096C45.9287 49.416 45.7367 49.64 45.502 49.768C44.8193 50.1947 44.094 50.3653 43.326 50.28C43.1553 50.2587 43.038 50.216 42.974 50.152C42.8033 50.1093 42.6753 50.0987 42.59 50.12L42.334 50.088C42.142 50.088 41.982 50.0453 41.854 49.96C41.6407 49.832 41.4913 49.768 41.406 49.768C40.8513 49.5547 40.51 49.3947 40.382 49.288C40.2753 49.1813 40.1793 49.1067 40.094 49.064C40.0087 49.0213 39.806 48.7973 39.486 48.392C39.2087 48.1573 39.0487 48.008 39.006 47.944C38.878 47.752 38.7607 47.6133 38.654 47.528C38.5687 47.4427 38.5153 47.2507 38.494 46.952C38.4087 46.8453 38.366 46.7067 38.366 46.536L38.238 46.28C38.238 46.1307 38.174 46.0133 38.046 45.928C37.918 45.8 37.854 45.64 37.854 45.448V45.192C37.7687 45.1493 37.7473 45.0213 37.79 44.808V43.976L37.758 43.688V43.464C37.7367 43.3787 37.758 43.1973 37.822 42.92L37.79 42.632C37.8113 42.6107 37.8433 42.44 37.886 42.12C37.9713 41.672 38.0673 41.3947 38.174 41.288V41C38.1953 40.936 38.206 40.8507 38.206 40.744C38.206 40.6373 38.2273 40.52 38.27 40.392C38.334 40.264 38.5047 39.784 38.782 38.952L39.294 37.832C39.4433 37.512 39.678 37.16 39.998 36.776C40.0193 36.6693 40.1047 36.4773 40.254 36.2L40.67 35.816C40.798 35.624 40.99 35.4853 41.246 35.4C41.5447 35.2507 41.7687 35.176 41.918 35.176L42.814 35.048C42.9207 35.0693 42.9953 35.08 43.038 35.08H43.454C43.9233 35.1227 44.3073 35.2187 44.606 35.368C45.246 35.56 45.7153 35.8053 46.014 36.104C46.6753 36.8507 47.006 37.5653 47.006 38.248C47.006 38.9307 46.8993 39.5173 46.686 40.008C46.1527 41.224 45.7687 41.992 45.534 42.312C45.15 43.016 44.6913 43.368 44.158 43.368ZM51.3835 36.584C51.9595 35.88 52.7488 35.5067 53.7515 35.464C55.3942 35.4 56.6102 35.8053 57.3995 36.68C58.2102 37.5547 58.6368 38.4187 58.6795 39.272C58.7435 40.1253 58.5302 40.584 58.0395 40.648C57.3355 40.6693 56.8768 40.5733 56.6635 40.36C56.4715 40.3813 56.2262 40.2427 55.9275 39.944C55.7995 39.88 55.6288 39.6347 55.4155 39.208L55.0635 38.408C54.8928 38.024 54.6795 37.8107 54.4235 37.768C54.1035 37.896 53.9435 38.216 53.9435 38.728C54.0288 39.7307 54.5088 40.6907 55.3835 41.608C55.3835 41.608 55.3942 41.64 55.4155 41.704C55.4582 41.7467 55.6182 41.9173 55.8955 42.216C57.5808 44.072 58.4555 45.5653 58.5195 46.696C58.5195 47.4213 58.3702 47.9013 58.0715 48.136C57.1542 49.224 55.9595 49.7893 54.4875 49.832C53.0155 49.8747 51.7995 49.416 50.8395 48.456C50.5835 48.2 50.4555 47.9547 50.4555 47.72C50.3275 47.3147 50.2848 47.048 50.3275 46.92C50.2635 46.3227 50.2635 45.8747 50.3275 45.576C50.4555 44.8933 50.9568 44.5413 51.8315 44.52C52.1515 44.52 52.3542 44.712 52.4395 45.096C52.7168 46.184 52.9728 46.8987 53.2075 47.24C53.4635 47.5813 53.8688 47.7413 54.4235 47.72C55.1275 47.6773 55.4582 47.2827 55.4155 46.536C55.3942 45.7893 55.0422 45.096 54.3595 44.456C54.1462 44.2 53.9328 44.008 53.7195 43.88C53.5275 43.7307 53.3995 43.624 53.3355 43.56C53.3142 43.496 53.2608 43.432 53.1755 43.368C52.7488 43.0267 52.2048 42.4613 51.5435 41.672C50.9035 40.8827 50.5622 40.1467 50.5195 39.464C50.4342 38.248 50.7222 37.288 51.3835 36.584ZM63.8585 39.56C63.7092 38.7067 63.2932 38.312 62.6105 38.376C62.2265 38.3973 61.8958 38.6533 61.6185 39.144C61.2345 39.8907 61.0638 40.8613 61.1065 42.056C61.1705 43.2293 61.2558 44.0827 61.3625 44.616C61.4905 45.128 61.7038 45.576 62.0025 45.96C62.1732 46.2587 62.4292 46.3973 62.7705 46.376C63.3678 46.376 63.8052 45.8747 64.0825 44.872L64.3385 44.104C64.4452 43.9973 64.4665 43.8907 64.4025 43.784C64.6158 43.2507 64.7332 42.6213 64.7545 41.896C64.5412 41.7467 64.4132 41.608 64.3705 41.48C64.2425 41.1173 64.1785 40.872 64.1785 40.744C64.0292 40.6373 63.9438 40.4347 63.9225 40.136C63.9012 39.8373 63.8798 39.6453 63.8585 39.56ZM58.0025 42.568L58.1305 40.936C58.2798 39.464 58.7278 38.2053 59.4745 37.16C60.1998 36.2853 61.2238 35.8373 62.5465 35.816H62.7385C63.9758 35.816 64.8718 36.0827 65.4265 36.616C66.0238 37.0853 66.4612 37.5973 66.7385 38.152C67.0372 38.7067 67.2292 39.112 67.3145 39.368C67.3998 39.624 67.4532 39.9973 67.4745 40.488C67.5172 41.4053 67.3358 41.928 66.9305 42.056C67.2292 44.0827 67.0478 45.6933 66.3865 46.888C66.1732 47.3787 65.8638 47.912 65.4585 48.488C65.1598 48.872 64.6265 49.0853 63.8585 49.128C63.0905 49.128 62.4185 49.0853 61.8425 49C61.2878 48.9147 60.6692 48.648 59.9865 48.2C59.3038 47.7307 58.8238 46.9733 58.5465 45.928C58.2478 44.9253 58.0665 43.8053 58.0025 42.568ZM68.8125 28.936C70.2418 28.936 71.2445 29.224 71.8205 29.8C71.8205 30.1627 71.5752 30.8987 71.0845 32.008C70.9992 32.3707 70.8605 32.6587 70.6685 32.872L70.2525 33.288C70.1458 33.352 70.0392 33.384 69.9325 33.384C69.1645 33.576 68.5672 33.4267 68.1405 32.936C68.0552 32.808 67.9485 32.712 67.8205 32.648C67.7138 32.584 67.6285 32.392 67.5645 32.072C67.3725 31.7947 67.2765 31.5813 67.2765 31.432C67.2338 30.1093 67.7138 29.2773 68.7165 28.936H68.8125ZM68.5565 36.488C68.7698 36.3813 69.2712 36.488 70.0605 36.808C70.1458 36.8933 70.2738 36.9787 70.4445 37.064L70.9565 37.48C71.0418 37.5653 71.0845 37.704 71.0845 37.896V40.712C71.0845 41.1387 71.0632 41.5227 71.0205 41.864V42.056C70.9565 42.9307 71.0098 44.904 71.1805 47.976C71.2445 48.5733 71.1058 48.936 70.7645 49.064C70.4018 49.064 70.1672 49.0107 70.0605 48.904C69.9752 48.8613 69.9005 48.84 69.8365 48.84H69.6125L69.4205 48.904C69.3565 48.904 69.2392 48.8613 69.0685 48.776C68.8978 48.6693 68.7805 48.5627 68.7165 48.456C68.6738 48.3493 68.5885 48.2853 68.4605 48.264C68.2258 48.1787 68.0978 48.0187 68.0765 47.784C67.7778 47.208 67.6178 46.8667 67.5965 46.76C67.5965 46.6533 67.5645 46.536 67.5005 46.408L67.3405 43.624C67.3405 43.304 67.3618 43.0587 67.4045 42.888V42.12C67.4258 41.8853 67.4472 41.4587 67.4685 40.84C67.4898 40.2 67.5218 39.688 67.5645 39.304C67.5218 38.7493 67.5005 38.376 67.5005 38.184C67.5005 37.992 67.5112 37.8533 67.5325 37.768C67.2978 37.5333 67.3085 37.2133 67.5645 36.808C67.8418 36.5947 68.1085 36.488 68.3645 36.488H68.5565ZM71.3265 39.56C71.3265 39.368 71.3052 39.144 71.2625 38.888V38.664C71.2838 38.5147 71.2732 38.3547 71.2305 38.184C71.2305 37.9707 71.2518 37.7787 71.2945 37.608C71.2945 37.1813 71.3478 36.904 71.4545 36.776C71.4545 36.6693 71.6038 36.424 71.9025 36.04C71.9878 35.9547 72.1478 35.816 72.3825 35.624C72.7238 35.5173 72.9585 35.4533 73.0865 35.432C73.1718 35.3467 73.4598 35.3787 73.9505 35.528C74.1638 35.5493 74.4945 35.624 74.9425 35.752C75.0918 35.7947 75.2838 35.9653 75.5185 36.264C75.4758 36.3493 75.4012 36.6693 75.2945 37.224C75.2092 37.7573 75.1772 38.1947 75.1985 38.536C75.3265 38.4293 75.5505 38.2053 75.8705 37.864C76.1905 37.5227 76.3612 37.3413 76.3825 37.32C76.9372 37.064 77.4812 36.8827 78.0145 36.776C78.7825 36.712 79.2838 36.7653 79.5185 36.936C79.7105 37 79.8598 37.096 79.9665 37.224C80.1585 37.3947 80.3185 37.6933 80.4465 38.12C80.5745 38.5253 80.5638 38.7813 80.4145 38.888C80.2865 38.9947 79.8598 39.08 79.1345 39.144C79.0918 39.144 78.9425 39.2293 78.6865 39.4L77.0225 40.712C76.6812 40.8827 76.4465 41.032 76.3185 41.16L75.7105 42.28C75.6892 42.3227 75.6678 42.6 75.6465 43.112C75.6252 43.624 75.6252 43.9973 75.6465 44.232C75.6678 44.4453 75.6678 45.16 75.6465 46.376V47.752C75.6465 48.4987 75.6358 48.9253 75.6145 49.032C75.5932 49.16 75.5078 49.3733 75.3585 49.672C75.2945 49.7787 75.0918 49.832 74.7505 49.832C73.9185 50.4507 73.3852 50.4187 73.1505 49.736L72.7345 49.48C72.5638 49.3947 72.4572 49.288 72.4145 49.16C72.2438 48.9253 72.1585 48.7867 72.1585 48.744L72.0305 48.296L71.8385 47.912C71.7745 47.8907 71.7212 47.4853 71.6785 46.696C71.6358 45.8853 71.6145 45.3947 71.6145 45.224C71.6145 45.032 71.5932 44.8293 71.5505 44.616C71.6998 44.4667 71.7638 44.2107 71.7425 43.848C71.7425 43.4853 71.7212 43.208 71.6785 43.016C71.6358 42.8027 71.6358 42.6747 71.6785 42.632C71.7212 42.568 71.7105 42.2693 71.6465 41.736C71.5825 41.6507 71.5718 41.4907 71.6145 41.256L71.3265 39.56ZM84.8227 46.44C84.8441 46.1413 84.8974 45.9707 84.9827 45.928C85.0681 45.8853 85.1427 45.8853 85.2067 45.928C85.2921 45.9493 85.6867 45.992 86.3907 46.056C86.5827 46.2907 86.7427 46.4293 86.8707 46.472C87.3827 46.984 87.7241 47.24 87.8947 47.24C88.0654 47.2613 88.1401 47.4213 88.1187 47.72C88.1187 47.9973 88.0227 48.2533 87.8307 48.488C87.5321 49.1493 87.1374 49.6613 86.6467 50.024C86.4121 50.1093 86.2307 50.152 86.1027 50.152C85.9747 50.152 85.6227 50.1093 85.0467 50.024C84.4921 49.9387 84.1721 49.768 84.0867 49.512V48.776C84.0867 48.3707 84.1294 48.136 84.2147 48.072C84.3214 48.008 84.3747 47.8373 84.3747 47.56L84.4707 46.888C84.6201 46.7813 84.7374 46.632 84.8227 46.44ZM89.7507 31.432C89.8574 31.0693 89.9107 30.8667 89.9107 30.824C89.9321 30.76 89.9641 30.6853 90.0067 30.6C90.1774 30.2587 90.2627 30.024 90.2627 29.896V29.448C90.2627 29.2987 90.2521 29.2133 90.2307 29.192C90.2094 29.1707 90.1134 29.16 89.9427 29.16C89.6227 29.224 89.1854 29.384 88.6307 29.64C88.0974 29.8747 87.7134 30.0987 87.4787 30.312C87.2654 30.504 86.9774 30.8987 86.6147 31.496C86.2521 32.072 86.0494 32.456 86.0067 32.648C85.9854 32.84 85.9321 32.9893 85.8467 33.096C85.7827 33.2027 85.7081 33.4587 85.6227 33.864C85.5587 34.248 85.5267 34.504 85.5267 34.632C85.5267 34.7387 85.5801 34.792 85.6867 34.792C85.9214 34.8347 85.8467 34.92 85.4627 35.048C85.3987 35.0907 85.2814 35.112 85.1107 35.112C84.9401 35.112 84.8334 35.0907 84.7907 35.048C84.3854 35.048 84.1507 34.9947 84.0867 34.888C83.8521 34.888 83.5961 34.8027 83.3187 34.632C83.0414 34.44 82.8601 34.2267 82.7747 33.992C82.4761 33.1173 82.5721 32.296 83.0627 31.528C83.3401 30.7173 83.6387 30.1947 83.9587 29.96C84.3214 29.192 84.5347 28.776 84.5987 28.712C84.6841 28.6267 84.7587 28.5733 84.8227 28.552C84.9081 28.3387 84.9507 28.2107 84.9507 28.168C84.9507 28.104 85.0467 28.0187 85.2387 27.912C85.4307 27.784 85.5801 27.6773 85.6867 27.592C85.9001 27.4213 86.0067 27.2933 86.0067 27.208C86.1561 27.208 86.2947 27.176 86.4227 27.112C86.7214 27.048 86.9134 26.9413 86.9987 26.792C87.1267 26.792 87.3934 26.728 87.7987 26.6C88.2041 26.472 88.7481 26.44 89.4307 26.504C89.5374 26.5467 89.7401 26.6533 90.0387 26.824C90.3374 26.9733 90.5081 27.0693 90.5507 27.112C90.5934 27.1333 90.6467 27.1547 90.7107 27.176C90.8814 27.24 91.0307 27.3573 91.1587 27.528C91.3507 27.5707 91.5321 27.6453 91.7027 27.752C91.9161 27.944 92.1827 28.0933 92.5027 28.2L93.0467 28.52C93.3027 28.5627 93.5161 28.5947 93.6867 28.616C93.7721 28.616 93.8787 28.7653 94.0067 29.064C94.0494 30.1733 93.5587 31.6667 92.5347 33.544C92.4707 33.6933 92.3534 33.928 92.1827 34.248C92.0334 34.5467 91.9481 34.76 91.9267 34.888C91.7134 35.3573 91.1374 36.5733 90.1987 38.536C89.2601 40.4987 88.7161 41.6187 88.5667 41.896C88.5454 41.896 88.4921 41.96 88.4067 42.088C88.3214 42.1947 88.2574 42.2587 88.2147 42.28L88.0547 42.632C88.0547 42.7387 87.9374 42.824 87.7027 42.888C87.4894 42.9307 87.3187 42.9413 87.1907 42.92H86.1667C85.6547 42.8133 85.3561 42.7173 85.2707 42.632C85.1854 42.5467 85.1427 42.28 85.1427 41.832C85.1427 40.424 85.4307 39.2613 86.0067 38.344C86.2201 37.8107 86.4121 37.3947 86.5827 37.096C86.7747 36.776 86.8921 36.5307 86.9347 36.36C86.9774 36.1893 87.1481 35.9547 87.4467 35.656C87.5747 35.3147 87.7027 35.0587 87.8307 34.888C87.9374 34.8453 88.0867 34.6427 88.2787 34.28C88.4921 33.9173 88.5987 33.6827 88.5987 33.576C88.5987 33.448 88.6947 33.32 88.8867 33.192C88.8867 33.1067 88.9507 32.968 89.0787 32.776C89.0787 32.4773 89.1427 32.264 89.2707 32.136C89.3987 31.9867 89.4627 31.816 89.4627 31.624C89.4627 31.496 89.5587 31.432 89.7507 31.432Z" fill="white"/>
</svg>
